<?xml version="1.0"?>
<svg xmlns="http://www.w3.org/2000/svg" id="icons" enable-background="new 0 0 64 64" height="512px" viewBox="0 0 64 64" width="512px" class=""><g transform="matrix(1.12671, 0, 0, 1.12671, -4.05479, -4.05479)"><g><g><path d="m37 23.49h-36l5-3.99h26z" fill="#f6bb42" data-original="#F6BB42" class="" style="fill:#F40000" data-old_color="#f6bb42"/></g><path d="m2 14.495c0 .55.45 1 1 1h32c.55 0 1-.45 1-1v-.99c0-.55-.45-1-1-1h-32c-.55 0-1 .45-1 1z" fill="#656d78" data-original="#656D78" class=""/><g><path d="m32 15.5v4h-26v-4-1c0-.77.29-1.46.77-1.99.53-.62 1.34-1.01 2.23-1.01h20c.89 0 1.7.39 2.23 1.01.48.53.77 1.22.77 1.99z" fill="#5d9cec" data-original="#5D9CEC" class=""/></g><g><path d="m1.001 24.494c-.294 0-.585-.129-.782-.376-.345-.431-.274-1.061.157-1.405l4.998-3.996c.431-.346 1.061-.274 1.405.157.345.431.274 1.061-.157 1.405l-4.998 3.996c-.184.148-.404.219-.623.219z" fill="#f6bb42" data-original="#F6BB42" class="" style="fill:#F40000" data-old_color="#f6bb42"/></g><g><path d="m36.999 24.493c-.219 0-.439-.071-.623-.219l-4.998-3.996c-.432-.345-.502-.975-.157-1.405s.976-.503 1.405-.157l4.998 3.996c.432.345.502.975.157 1.405-.197.247-.488.376-.782.376z" fill="#f6bb42" data-original="#F6BB42" class="" style="fill:#F40000" data-old_color="#f6bb42"/></g><g><path d="m32.002 15.499c-.553 0-1-.447-1-1 0-1.103-.897-2-2-2-.553 0-1-.447-1-1s.447-1 1-1c2.206 0 4 1.794 4 4 0 .553-.447 1-1 1z" fill="#f6bb42" data-original="#F6BB42" class="" style="fill:#F40000" data-old_color="#f6bb42"/></g><g><path d="m5.998 15.498c-.553 0-1-.447-1-1 0-2.206 1.794-4 4-4 .553 0 1 .447 1 1s-.447 1-1 1c-1.103 0-2 .897-2 2 0 .553-.447 1-1 1z" fill="#f6bb42" data-original="#F6BB42" class="" style="fill:#F40000" data-old_color="#f6bb42"/></g><g><path d="m32.002 20.497c-.553 0-1-.447-1-1v-4.998c0-.553.447-1 1-1s1 .447 1 1v4.998c0 .553-.447 1-1 1z" fill="#f6bb42" data-original="#F6BB42" class="" style="fill:#F40000" data-old_color="#f6bb42"/></g><g><path d="m29.002 12.499h-20.004c-.553 0-1-.447-1-1s.447-1 1-1h20.004c.553 0 1 .447 1 1s-.447 1-1 1z" fill="#f6bb42" data-original="#F6BB42" class="" style="fill:#F40000" data-old_color="#f6bb42"/></g><g><path d="m5.998 20.498c-.553 0-1-.447-1-1v-5c0-.553.447-1 1-1s1 .447 1 1v5c0 .553-.447 1-1 1z" fill="#f6bb42" data-original="#F6BB42" class="" style="fill:#F40000" data-old_color="#f6bb42"/></g><g><path d="m32.002 20.497h-26.004c-.553 0-1-.447-1-1s.447-1 1-1h26.004c.553 0 1 .447 1 1s-.447 1-1 1z" fill="#f6bb42" data-original="#F6BB42" class="" style="fill:#F40000" data-old_color="#f6bb42"/></g><path d="m27 38.5v11h7 21 8v-11z" fill="#ed5565" data-original="#ED5565" class="" style="fill:#A20112" data-old_color="#ed5565"/><g fill="#ffce54"><path d="m32 30.5v3.99h-24-7v-11h36v3.01h-2c-.89 0-1.7.39-2.23 1.01l-.01-.01z" data-original="#FFCE54" class="" style="fill:#FF0000" data-old_color="#FFCE54"/><path d="m25 31.5v-4h-3-3-3-3v4h3 3 3z" data-original="#FFCE54" class="" style="fill:#FF0000" data-old_color="#FFCE54"/><path d="m8 29c0-.82-.67-1.5-1.5-1.5s-1.5.68-1.5 1.5c0 .83.67 1.5 1.5 1.5s1.5-.67 1.5-1.5z" data-original="#FFCE54" class="" style="fill:#FF0000" data-old_color="#FFCE54"/></g><path d="m28 29.5c0 .55.45 1 1 1h32c.55 0 1-.45 1-1v-.99c0-.55-.45-1-1-1h-32c-.55 0-1 .45-1 1z" fill="#656d78" data-original="#656D78" class=""/><g><path d="m1 34.49h7v3.01h-7z" fill="#656d78" data-original="#656D78" class=""/></g><g><path d="m8 38.496h-6.998c-.553 0-1-.447-1-1v-3.003c0-.553.447-1 1-1h6.998c.553 0 1 .447 1 1v3.003c0 .553-.447 1-1 1zm-5.998-2h4.998v-1.003h-4.998z" fill="#656d78" data-original="#656D78" class=""/></g><g><path d="m31.998 35.493h-30.998c-.553 0-1-.447-1-1v-10.999c0-.553.447-1 1-1h36c.553 0 1 .447 1 1s-.447 1-1 1h-35v8.999h29.998c.553 0 1 .447 1 1s-.447 1-1 1z" fill="#ffce54" data-original="#FFCE54" class="" style="fill:#FF0000" data-old_color="#ffce54"/></g><g><path d="m37 27.498c-.553 0-1-.447-1-1v-3.004c0-.553.447-1 1-1s1 .447 1 1v3.004c0 .553-.447 1-1 1z" fill="#ffce54" data-original="#FFCE54" class="" style="fill:#FF0000" data-old_color="#ffce54"/></g><g><path d="m30 41.5h4.5c.83 0 1.5.67 1.5 1.5s-.67 1.5-1.5 1.5h-1.5c-1.66 0-3-1.34-3-3z" fill="#e6e9ed" data-original="#E6E9ED" class=""/></g><g><path d="m27 49.5h7v3h-7z" fill="#656d78" data-original="#656D78" class=""/></g><g><path d="m55.5 41.5h4.5c0 1.66-1.34 3-3 3h-1.5c-.83 0-1.5-.67-1.5-1.5s.67-1.5 1.5-1.5z" fill="#e6e9ed" data-original="#E6E9ED" class=""/></g><g><path d="m55 49.5h8v3h-8z" fill="#656d78" data-original="#656D78" class=""/></g><g><path d="m63 38.5h-36l5-4h26z" fill="#da4453" data-original="#DA4453" class="active-path" style="fill:#4F0008" data-old_color="#da4453"/></g><g><path d="m6.5 27.5c.83 0 1.5.68 1.5 1.5 0 .83-.67 1.5-1.5 1.5s-1.5-.67-1.5-1.5c0-.82.67-1.5 1.5-1.5z" fill="#e6e9ed" data-original="#E6E9ED" class=""/></g><g><path d="m58 30.5v4h-26v-.01-3.99-1c0-.76.29-1.46.77-1.99.53-.62 1.34-1.01 2.23-1.01h2 18c.89 0 1.7.39 2.24 1.01.47.53.76 1.23.76 1.99z" fill="#5d9cec" data-original="#5D9CEC" class=""/></g><g><path d="m63 53.502h-8c-.553 0-1-.447-1-1v-3.003c0-.553.447-1 1-1h8c.553 0 1 .447 1 1v3.003c0 .553-.447 1-1 1zm-7-2h6v-1.003h-6z" fill="#656d78" data-original="#656D78" class=""/></g><g><path d="m34 53.502h-6.998c-.553 0-1-.447-1-1v-3.003c0-.553.447-1 1-1h6.998c.553 0 1 .447 1 1v3.003c0 .553-.447 1-1 1zm-5.998-2h4.998v-1.003h-4.998z" fill="#656d78" data-original="#656D78" class=""/></g><g><path d="m27.001 39.5c-.294 0-.585-.129-.782-.376-.345-.431-.274-1.061.157-1.405l4.998-3.996c.431-.345 1.062-.273 1.405.157.345.431.274 1.061-.157 1.405l-4.998 3.996c-.184.148-.404.219-.623.219z" fill="#da4453" data-original="#DA4453" class="active-path" style="fill:#4F0008" data-old_color="#da4453"/></g><g><path d="m62.999 39.499c-.219 0-.439-.071-.623-.219l-4.998-3.996c-.432-.345-.502-.975-.157-1.405.344-.43.976-.502 1.405-.157l4.998 3.996c.432.345.502.975.157 1.405-.197.247-.488.376-.782.376z" fill="#da4453" data-original="#DA4453" class="active-path" style="fill:#4F0008" data-old_color="#da4453"/></g><g><path d="m58.002 30.505c-.553 0-1-.447-1-1 0-1.103-.897-2-2-2-.553 0-1-.447-1-1s.447-1 1-1c2.206 0 4 1.794 4 4 0 .553-.447 1-1 1z" fill="#da4453" data-original="#DA4453" class="active-path" style="fill:#4F0008" data-old_color="#da4453"/></g><g><path d="m31.998 30.504c-.553 0-1-.447-1-1 0-2.206 1.794-4 4-4 .553 0 1 .447 1 1s-.447 1-1 1c-1.103 0-2 .897-2 2 0 .553-.447 1-1 1z" fill="#da4453" data-original="#DA4453" class="active-path" style="fill:#4F0008" data-old_color="#da4453"/></g><g><path d="m58.002 35.503c-.553 0-1-.447-1-1v-4.998c0-.553.447-1 1-1s1 .447 1 1v4.998c0 .553-.447 1-1 1z" fill="#da4453" data-original="#DA4453" class="active-path" style="fill:#4F0008" data-old_color="#da4453"/></g><g><path d="m55.002 27.505h-20.004c-.553 0-1-.447-1-1s.447-1 1-1h20.004c.553 0 1 .447 1 1s-.447 1-1 1z" fill="#da4453" data-original="#DA4453" class="active-path" style="fill:#4F0008" data-old_color="#da4453"/></g><g><path d="m31.998 35.504c-.553 0-1-.447-1-1v-5c0-.553.447-1 1-1s1 .447 1 1v5c0 .553-.447 1-1 1z" fill="#da4453" data-original="#DA4453" class="active-path" style="fill:#4F0008" data-old_color="#da4453"/></g><g><path d="m58.002 35.503h-26.004c-.553 0-1-.447-1-1s.447-1 1-1h26.004c.553 0 1 .447 1 1s-.447 1-1 1z" fill="#da4453" data-original="#DA4453" class="active-path" style="fill:#4F0008" data-old_color="#da4453"/></g><g><path d="m63 50.499h-36c-.553 0-1-.447-1-1v-10.999c0-.553.447-1 1-1h36c.553 0 1 .447 1 1v10.999c0 .553-.447 1-1 1zm-35-2h34v-8.999h-34z" fill="#ed5565" data-original="#ED5565" class="" style="fill:#A20112" data-old_color="#ed5565"/></g><g><g><path d="m49.416 42.5c.55 0 1 .45 1 1v2c0 .55-.45 1-1 1h-8.999c-.55 0-1-.45-1-1v-2c0-.55.45-1 1-1z" fill="#e6e9ed" data-original="#E6E9ED" class=""/></g><g fill="#ccd1d9"><path d="m41.5 42.5h1v4h-1z" data-original="#CCD1D9" class="" style="fill:#CCD1D9"/><path d="m44.5 42.5h1v4h-1z" data-original="#CCD1D9" class="" style="fill:#CCD1D9"/><path d="m47.5 42.5h1v4h-1z" data-original="#CCD1D9" class="" style="fill:#CCD1D9"/></g></g><g><g><path d="m23.5 27.496c.55 0 1 .45 1 1v2c0 .55-.45 1-1 1h-8.999c-.55 0-1-.45-1-1v-2c0-.55.45-1 1-1z" fill="#e6e9ed" data-original="#E6E9ED" class=""/></g><g fill="#ccd1d9"><path d="m15.584 27.496h1v4h-1z" data-original="#CCD1D9" class="" style="fill:#CCD1D9"/><path d="m18.584 27.496h1v4h-1z" data-original="#CCD1D9" class="" style="fill:#CCD1D9"/><path d="m21.584 27.496h1v4h-1z" data-original="#CCD1D9" class="" style="fill:#CCD1D9"/></g></g></g></g> </svg>
