<?xml version="1.0"?>
<svg xmlns="http://www.w3.org/2000/svg" height="512px" viewBox="0 0 128 128" width="512px" class=""><g transform="matrix(1.05101, 0, 0, 1.05101, -3.26464, -3.26464)"><g transform="matrix(1.05048, 0, 0, 1.05048, -3.23101, -3.23101)"><g><path d="m6.306 80.867h115.387v12.193h-115.387z" fill="#ef983b" data-original="#F40606" class="" style="fill:#F40606" data-old_color="#ef983b"/><path d="m6.306 27.554h70.889v53.313h-70.889z" fill="#ef3829" data-original="#EF3829" class=""/><path d="m77.195 80.867v-45.451h26.34l18.159 20.409v25.042z" fill="#ef983b" data-original="#F40606" class="" style="fill:#F40606" data-old_color="#ef983b"/><path d="m100.939 41.484h-13.171v14.341h25.93z" fill="#f2e7cb" data-original="#F2E7CB" class=""/><circle cx="29.86" cy="86.936" fill="#8c3f07" r="13.51" data-original="#FB5252" class="" style="fill:#FB5252" data-old_color="#8c3f07"/><circle cx="98.14" cy="86.936" fill="#8c3f07" r="13.51" data-original="#FB5252" class="" style="fill:#FB5252" data-old_color="#8c3f07"/><path d="m121.694 63.235h-5.376a3.688 3.688 0 0 0 -3.688 3.687 3.688 3.688 0 0 0 3.688 3.688h5.376z" fill="#f2e7cb" data-original="#F2E7CB" class=""/><path d="m67.81 36.83v6.52a6.515 6.515 0 0 1 -13.03 0v-6.52z" fill="#f2e7cb" data-original="#F2E7CB" class=""/><path d="m54.78 36.83v6.52a6.515 6.515 0 0 1 -13.03 0v-6.52z" fill="#ef983b" data-original="#F40606" class="" style="fill:#F40606" data-old_color="#ef983b"/><path d="m41.75 36.83v6.52a6.515 6.515 0 0 1 -13.03 0v-6.52z" fill="#f2e7cb" data-original="#F2E7CB" class=""/><path d="m28.72 36.83v6.52a6.51 6.51 0 0 1 -13.02 0v-6.52z" fill="#ef983b" data-original="#F40606" class="" style="fill:#F40606" data-old_color="#ef983b"/><path d="m67.81 43.35v22.24h-52.11v-22.24a6.51 6.51 0 0 0 13.02 0 6.515 6.515 0 0 0 13.03 0 6.515 6.515 0 0 0 13.03 0 6.515 6.515 0 0 0 13.03 0z" fill="#8c3f07" data-original="#FB5252" class="" style="fill:#FB5252" data-old_color="#8c3f07"/><circle cx="29.86" cy="86.936" fill="#f2e7cb" r="5.028" data-original="#F2E7CB" class=""/><circle cx="98.14" cy="86.936" fill="#f2e7cb" r="5.028" data-original="#F2E7CB" class=""/><path d="m92.324 64.546h-4.556a1.75 1.75 0 1 1 0-3.5h4.556a1.75 1.75 0 0 1 0 3.5z" fill="#d87c30" data-original="#D87C30" class="active-path" style="fill:#D87C30"/></g></g></g> </svg>
